<svg width="327" height="18" viewBox="0 0 327 18" fill="none" xmlns="http://www.w3.org/2000/svg">
<path d="M135.15 8.812C135.15 6.304 133.314 4.54 130.95 4.54C128.598 4.54 126.75 6.304 126.75 8.812C126.75 11.32 128.598 13.084 130.95 13.084C133.314 13.084 135.15 11.32 135.15 8.812ZM127.866 8.812C127.866 6.76 129.186 5.488 130.95 5.488C132.714 5.488 134.034 6.76 134.034 8.812C134.034 10.852 132.714 12.136 130.95 12.136C129.186 12.136 127.866 10.852 127.866 8.812ZM137.683 9.424C137.683 7.9 138.475 7.432 139.519 7.432H139.807V6.304C138.763 6.304 138.055 6.76 137.683 7.492V6.424H136.591V13H137.683V9.424ZM144.267 13H145.359V4.12H144.267V13ZM153.46 9.7C153.46 7.624 152.008 6.316 150.136 6.316C148.276 6.316 146.812 7.624 146.812 9.7C146.812 11.788 148.228 13.108 150.088 13.108C151.96 13.108 153.46 11.788 153.46 9.7ZM147.928 9.7C147.928 8.044 148.972 7.264 150.124 7.264C151.252 7.264 152.344 8.044 152.344 9.7C152.344 11.368 151.228 12.148 150.088 12.148C148.948 12.148 147.928 11.368 147.928 9.7ZM154.488 9.688C154.488 11.728 155.844 13.108 157.608 13.108C158.808 13.108 159.66 12.472 160.056 11.764V13.144C160.056 14.548 159.18 15.292 158.016 15.292C156.936 15.292 156.156 14.752 155.916 13.96H154.836C155.052 15.364 156.288 16.24 158.016 16.24C159.948 16.24 161.16 14.956 161.16 13.144V6.424H160.056V7.624C159.672 6.916 158.808 6.316 157.608 6.316C155.844 6.316 154.488 7.636 154.488 9.688ZM160.056 9.7C160.056 11.248 159.024 12.148 157.824 12.148C156.624 12.148 155.604 11.236 155.604 9.688C155.604 8.14 156.624 7.264 157.824 7.264C159.024 7.264 160.056 8.176 160.056 9.7ZM163.006 13H164.098V6.424H163.006V13ZM163.57 5.356C163.966 5.356 164.29 5.032 164.29 4.612C164.29 4.192 163.966 3.868 163.57 3.868C163.15 3.868 162.826 4.192 162.826 4.612C162.826 5.032 163.15 5.356 163.57 5.356ZM170.771 13H171.851V9.124C171.851 7.24 170.687 6.304 169.163 6.304C168.275 6.304 167.483 6.676 167.051 7.36V6.424H165.959V13H167.051V9.364C167.051 7.948 167.819 7.252 168.935 7.252C170.039 7.252 170.771 7.936 170.771 9.28V13ZM178.118 13H179.246L180.83 7.78L182.414 13H183.542L185.594 6.424H184.514L183.026 11.956L181.43 6.424H180.314L178.682 11.944L177.17 6.424H176.054L178.118 13ZM186.677 13H187.769V6.424H186.677V13ZM187.241 5.356C187.637 5.356 187.961 5.032 187.961 4.612C187.961 4.192 187.637 3.868 187.241 3.868C186.821 3.868 186.497 4.192 186.497 4.612C186.497 5.032 186.821 5.356 187.241 5.356ZM189.871 11.2C189.871 12.52 190.531 13 191.695 13H192.679V12.076H191.875C191.203 12.076 190.963 11.848 190.963 11.2V7.324H192.679V6.424H190.963V4.768H189.871V6.424H189.019V7.324H189.871V11.2ZM194.002 13H195.094V9.364C195.094 7.948 195.862 7.252 196.978 7.252C198.082 7.252 198.814 7.936 198.814 9.28V13H199.894V9.124C199.894 7.24 198.73 6.304 197.266 6.304C196.342 6.304 195.526 6.676 195.094 7.372V4.12H194.002V13Z" fill="#858597"/>
<path d="M0 7H103.5" stroke="#B8B8D2" stroke-width="0.5"/>
<path d="M224 7H327" stroke="#B8B8D2" stroke-width="0.5"/>
</svg>
